# xmcd
#
# Track frame offsets: 
#        150
#        25801
#        51160
#        74513
#        96808
#        108123
#        128517
#        150861
#        168628
#        184459
#        207198
#        236083
#
# Disc length: 4316 seconds
#
# Revision: 0
# Processed by: cddbd v1.5.2PL0 Copyright (c) Steve Scherf et al.
# Submitted via: ExactAudioCopy v0.99pb4
#
DISCID=9c10da0c
DTITLE=Sugar Blue - Threshold
DYEAR=2009
DGENRE=Blues
TTITLE0=Living Your Love
TTITLE1=Averace Guy
TTITLE2=Noel News
TTITLE3=Stop The War
TTITLE4=Ramblin
TTITLE5=Cotton Tree (A Tribute To James Cotton )
TTITLE6=Messin With Thew Kid
TTITLE7=Tonight
TTITLE8=Trouble
TTITLE9=Don t Call Me
TTITLE10=Nightmare
TTITLE11=interview
EXTD=
EXTT0=
EXTT1=
EXTT2=
EXTT3=
EXTT4=
EXTT5=
EXTT6=
EXTT7=
EXTT8=
EXTT9=
EXTT10=
EXTT11=
PLAYORDER=
